<mxfile host="Electron" modified="2024-11-15T01:38:47.573Z" agent="Mozilla/5.0 (Windows NT 10.0; Win64; x64) AppleWebKit/537.36 (KHTML, like Gecko) draw.io/24.6.4 Chrome/124.0.6367.207 Electron/30.0.6 Safari/537.36" etag="-EwVlv8k0EgCNb9eSFHz" version="24.6.4" type="device">
  <diagram name="第 1 页" id="zjYw8dFMGJd7XRq6z8_j">
    <mxGraphModel dx="954" dy="705" grid="1" gridSize="10" guides="1" tooltips="1" connect="1" arrows="1" fold="1" page="1" pageScale="1" pageWidth="1200" pageHeight="1600" math="0" shadow="0">
      <root>
        <mxCell id="0" />
        <mxCell id="1" parent="0" />
        <mxCell id="ZeCyiN10jsw1kdIcF4-K-5" value="&lt;p style=&quot;margin:0px;margin-top:4px;text-align:center;&quot;&gt;&lt;i&gt;&amp;lt;&amp;lt;SceneController&amp;gt;&amp;gt;&lt;/i&gt;&lt;br&gt;&lt;b&gt;FirstController&lt;/b&gt;&lt;/p&gt;&lt;hr size=&quot;1&quot; style=&quot;border-style:solid;&quot;&gt;&lt;p style=&quot;margin:0px;margin-left:4px;&quot;&gt;&lt;br&gt;&lt;/p&gt;" style="verticalAlign=top;align=left;overflow=fill;html=1;whiteSpace=wrap;" vertex="1" parent="1">
          <mxGeometry x="120" y="160" width="190" height="110" as="geometry" />
        </mxCell>
        <mxCell id="ZeCyiN10jsw1kdIcF4-K-6" value="&lt;p style=&quot;margin:0px;margin-top:4px;text-align:center;&quot;&gt;&lt;i&gt;&amp;lt;&amp;lt;DataManager&amp;gt;&amp;gt;&lt;/i&gt;&lt;br&gt;&lt;b&gt;DadaManager&lt;/b&gt;&lt;/p&gt;&lt;hr size=&quot;1&quot; style=&quot;border-style:solid;&quot;&gt;&lt;p style=&quot;margin:0px;margin-left:4px;&quot;&gt;- score&lt;br&gt;- round&lt;/p&gt;&lt;p style=&quot;margin:0px;margin-left:4px;&quot;&gt;- life&lt;/p&gt;&lt;hr size=&quot;1&quot; style=&quot;border-style:solid;&quot;&gt;&lt;p style=&quot;margin:0px;margin-left:4px;&quot;&gt;+ UpdateRecord(disk)&lt;br&gt;+ UpdateLive()&lt;/p&gt;" style="verticalAlign=top;align=left;overflow=fill;html=1;whiteSpace=wrap;" vertex="1" parent="1">
          <mxGeometry x="400" y="370" width="190" height="140" as="geometry" />
        </mxCell>
        <mxCell id="ZeCyiN10jsw1kdIcF4-K-7" value="&lt;p style=&quot;margin:0px;margin-top:4px;text-align:center;&quot;&gt;&lt;i&gt;&amp;lt;&amp;lt;Singleton&amp;gt;&amp;gt;&lt;/i&gt;&lt;br&gt;&lt;b&gt;DiskFactory&lt;/b&gt;&lt;/p&gt;&lt;hr size=&quot;1&quot; style=&quot;border-style:solid;&quot;&gt;&lt;p style=&quot;margin:0px;margin-left:4px;&quot;&gt;+ diskPrefab&lt;br&gt;- List&amp;lt;DiskData&amp;gt; used&lt;/p&gt;&lt;p style=&quot;margin:0px;margin-left:4px;&quot;&gt;- List&amp;lt;DiskData&amp;gt; free&lt;/p&gt;&lt;hr size=&quot;1&quot; style=&quot;border-style:solid;&quot;&gt;&lt;p style=&quot;margin:0px;margin-left:4px;&quot;&gt;+ GetDisk(round)&lt;br&gt;+ FreeDisk(disk)&lt;/p&gt;" style="verticalAlign=top;align=left;overflow=fill;html=1;whiteSpace=wrap;" vertex="1" parent="1">
          <mxGeometry x="400" y="160" width="190" height="140" as="geometry" />
        </mxCell>
        <mxCell id="ZeCyiN10jsw1kdIcF4-K-8" value="&lt;p style=&quot;margin:0px;margin-top:4px;text-align:center;&quot;&gt;&lt;i&gt;&amp;lt;&amp;lt;Prefabs&amp;gt;&amp;gt;&lt;/i&gt;&lt;br&gt;&lt;b&gt;disk:GameObject&lt;/b&gt;&lt;/p&gt;&lt;hr size=&quot;1&quot; style=&quot;border-style:solid;&quot;&gt;&lt;p style=&quot;margin:0px;margin-left:4px;&quot;&gt;&lt;br&gt;&lt;/p&gt;&lt;p style=&quot;margin:0px;margin-left:4px;&quot;&gt;&lt;br&gt;&lt;/p&gt;" style="verticalAlign=top;align=left;overflow=fill;html=1;whiteSpace=wrap;" vertex="1" parent="1">
          <mxGeometry x="680" y="160" width="190" height="50" as="geometry" />
        </mxCell>
        <mxCell id="ZeCyiN10jsw1kdIcF4-K-9" value="&lt;p style=&quot;margin:0px;margin-top:4px;text-align:center;&quot;&gt;&lt;i&gt;&amp;lt;&amp;lt;Serialiable&amp;gt;&amp;gt;&lt;/i&gt;&lt;br&gt;&lt;b&gt;:DiskData::MonoBehaiviour&lt;/b&gt;&lt;/p&gt;&lt;hr size=&quot;1&quot; style=&quot;border-style:solid;&quot;&gt;&lt;p style=&quot;margin:0px;margin-left:4px;&quot;&gt;score&lt;br&gt;foodName&lt;/p&gt;&lt;p style=&quot;margin:0px;margin-left:4px;&quot;&gt;speed&lt;/p&gt;&lt;p style=&quot;margin:0px;margin-left:4px;&quot;&gt;angle&lt;/p&gt;&lt;p style=&quot;margin:0px;margin-left:4px;&quot;&gt;&lt;br&gt;&lt;/p&gt;" style="verticalAlign=top;align=left;overflow=fill;html=1;whiteSpace=wrap;" vertex="1" parent="1">
          <mxGeometry x="680" y="300" width="190" height="110" as="geometry" />
        </mxCell>
        <mxCell id="ZeCyiN10jsw1kdIcF4-K-10" value="" style="endArrow=open;endFill=1;endSize=12;html=1;rounded=0;exitX=0.466;exitY=1.014;exitDx=0;exitDy=0;exitPerimeter=0;entryX=-0.016;entryY=0.593;entryDx=0;entryDy=0;entryPerimeter=0;" edge="1" parent="1" source="ZeCyiN10jsw1kdIcF4-K-5" target="ZeCyiN10jsw1kdIcF4-K-6">
          <mxGeometry width="160" relative="1" as="geometry">
            <mxPoint x="140" y="360" as="sourcePoint" />
            <mxPoint x="300" y="360" as="targetPoint" />
            <Array as="points">
              <mxPoint x="209" y="453" />
            </Array>
          </mxGeometry>
        </mxCell>
        <mxCell id="ZeCyiN10jsw1kdIcF4-K-11" value="" style="endArrow=open;endSize=12;dashed=1;html=1;rounded=0;entryX=0.5;entryY=1;entryDx=0;entryDy=0;exitX=1.021;exitY=0.593;exitDx=0;exitDy=0;exitPerimeter=0;" edge="1" parent="1" source="ZeCyiN10jsw1kdIcF4-K-6" target="ZeCyiN10jsw1kdIcF4-K-9">
          <mxGeometry width="160" relative="1" as="geometry">
            <mxPoint x="620" y="500" as="sourcePoint" />
            <mxPoint x="780" y="500" as="targetPoint" />
            <Array as="points">
              <mxPoint x="775" y="453" />
            </Array>
            <mxPoint as="offset" />
          </mxGeometry>
        </mxCell>
        <mxCell id="ZeCyiN10jsw1kdIcF4-K-12" value="" style="endArrow=open;endFill=1;endSize=12;html=1;rounded=0;exitX=0.5;exitY=1;exitDx=0;exitDy=0;entryX=0.5;entryY=0;entryDx=0;entryDy=0;" edge="1" parent="1" source="ZeCyiN10jsw1kdIcF4-K-8" target="ZeCyiN10jsw1kdIcF4-K-9">
          <mxGeometry width="160" relative="1" as="geometry">
            <mxPoint x="770" y="260" as="sourcePoint" />
            <mxPoint x="930" y="260" as="targetPoint" />
          </mxGeometry>
        </mxCell>
        <mxCell id="ZeCyiN10jsw1kdIcF4-K-13" value="" style="endArrow=open;endSize=12;dashed=1;html=1;rounded=0;exitX=1.011;exitY=0.368;exitDx=0;exitDy=0;exitPerimeter=0;entryX=-0.034;entryY=0.296;entryDx=0;entryDy=0;entryPerimeter=0;" edge="1" parent="1" source="ZeCyiN10jsw1kdIcF4-K-5" target="ZeCyiN10jsw1kdIcF4-K-7">
          <mxGeometry width="160" relative="1" as="geometry">
            <mxPoint x="260" y="360" as="sourcePoint" />
            <mxPoint x="420" y="360" as="targetPoint" />
          </mxGeometry>
        </mxCell>
        <mxCell id="ZeCyiN10jsw1kdIcF4-K-14" value="" style="endArrow=open;endSize=12;dashed=1;html=1;rounded=0;entryX=0;entryY=0.75;entryDx=0;entryDy=0;" edge="1" parent="1" target="ZeCyiN10jsw1kdIcF4-K-8">
          <mxGeometry width="160" relative="1" as="geometry">
            <mxPoint x="590" y="198" as="sourcePoint" />
            <mxPoint x="670" y="230" as="targetPoint" />
          </mxGeometry>
        </mxCell>
        <mxCell id="ZeCyiN10jsw1kdIcF4-K-18" value="1" style="text;html=1;align=center;verticalAlign=middle;whiteSpace=wrap;rounded=0;" vertex="1" parent="1">
          <mxGeometry x="310" y="460" width="60" height="30" as="geometry" />
        </mxCell>
      </root>
    </mxGraphModel>
  </diagram>
</mxfile>
